<svg width="398" height="104" viewBox="0 0 398 104" fill="none" xmlns="http://www.w3.org/2000/svg">
<path d="M326.451 102.731H398V86.1287H326.451V102.731ZM326.451 0.744973H398V17.3474H326.451V0.744973ZM381.305 60.0392H326.451V43.4369H381.305V60.0392Z" fill="white"/>
<path d="M150.1 64.4265C150.1 70.2748 151.997 75.0959 155.789 78.8882C159.581 82.6347 164.608 84.5084 170.867 84.5084C177.127 84.5084 182.153 82.6347 185.946 78.8882C189.738 75.0959 191.634 70.2748 191.635 64.4265V0H213.156V66.2085C213.156 73.656 211.397 80.1907 207.878 85.8106C204.36 91.3848 199.425 95.726 193.074 98.833C186.723 101.94 179.32 103.494 170.867 103.494C162.369 103.494 154.943 101.94 148.592 98.833C142.287 95.726 137.375 91.3848 133.856 85.8106C130.338 80.1907 128.579 73.656 128.579 66.2085V0H150.1V64.4265Z" fill="white"/>
<path d="M54.694 68.6074H55.8592L84.0286 0H110.827V102.123H89.6488V35.6402H88.8949L62.3704 101.643H48.0457L21.7954 35.5031H20.9044V102.123H0V0H26.5931L54.694 68.6074Z" fill="white"/>
<path d="M279.776 102.123H258.254V30.5397H279.776V102.123Z" fill="white"/>
<path d="M310.892 17.7973H231.749V17.8201H227.069V0H310.892V17.7973Z" fill="white"/>
</svg>
